# xmcd
# Copyright (C) 1995-1998 Ti Kan
#
# Track frame offsets:
#       150
#       22230
#       28668
#       52168
#       69528
#       79217
#       92453
#       96908
#       108081
#       123382
#       147576
#       158068
#       178447
#       191118
#       209276
#       226469
#       237344
#       250458
#       271590
#       275125
#       278335
#       283050
#       284667
#       288115
#       289815
#       292172
#       295467
#       299170
#       301561
#
# Disc length: 4163 seconds
#
# Revision: 0
# Processed by: cddbd v1.5.2PL0 Copyright (c) Steve Scherf et al.
# Submitted via: CD-Transfer v1.0
#
DISCID=df10411d
DTITLE=Robert Hager - Die Schˆnsten M‰rchen 4
DYEAR=11
DGENRE=
TTITLE0=Rapunzel-01
TTITLE1=Rapunzel-02
TTITLE2=Rapunzel-03
TTITLE3=Rapunzel-04
TTITLE4=Rotk‰ppchen-01
TTITLE5=Rotk‰ppchen-02
TTITLE6=Rotk‰ppchen-03
TTITLE7=Rotk‰ppchen-04
TTITLE8=Rotk‰ppchen-05
TTITLE9=Schneewittchen-01
TTITLE10=Schneewittchen-02
TTITLE11=Schneewittchen-03
TTITLE12=Schneewittchen-04
TTITLE13=Schneewittchen-05
TTITLE14=Schneewittchen-06
TTITLE15=Schneewittchen-07
TTITLE16=Schneewittchen-08
TTITLE17=Schneewittchen-09
TTITLE18=Das Groﬂe R‰tsel-01
TTITLE19=Das Groﬂe R‰tsel-02
TTITLE20=Das Groﬂe R‰tsel-03
TTITLE21=Das Groﬂe R‰tsel-04
TTITLE22=Das Groﬂe R‰tsel-05
TTITLE23=Das Groﬂe R‰tsel-06
TTITLE24=Das Groﬂe R‰tsel-07
TTITLE25=Das Groﬂe R‰tsel-08
TTITLE26=Das Groﬂe R‰tsel-09
TTITLE27=Das Groﬂe R‰tsel-10
TTITLE28=Das Groﬂe R‰tsel-11
EXTD=
EXTT0=
EXTT1=
EXTT2=
EXTT3=
EXTT4=
EXTT5=
EXTT6=
EXTT7=
EXTT8=
EXTT9=
EXTT10=
EXTT11=
EXTT12=
EXTT13=
EXTT14=
EXTT15=
EXTT16=
EXTT17=
EXTT18=
EXTT19=
EXTT20=
EXTT21=
EXTT22=
EXTT23=
EXTT24=
EXTT25=
EXTT26=
EXTT27=
EXTT28=
PLAYORDER=
